<svg width="28" height="21" viewBox="0 0 28 21" fill="none" xmlns="http://www.w3.org/2000/svg">
<mask id="path-1-inside-1_502_2843" fill="white">
<path d="M17.1165 20.6213C17.1165 20.8305 17.286 21.0007 17.495 20.9932C18.8535 20.9442 20.1907 20.6318 21.4321 20.0721C22.7887 19.4605 23.9998 18.5675 24.985 17.4524C25.9703 16.3372 26.7073 15.0254 27.1472 13.6038C27.5871 12.1823 27.7198 10.6835 27.5365 9.20674C27.3532 7.73001 26.8582 6.3091 26.0841 5.03821C25.3101 3.76731 24.2747 2.67546 23.0467 1.83502C21.8187 0.994584 20.4261 0.42476 18.9612 0.163322C17.6207 -0.0759194 16.2476 -0.0519153 14.9184 0.232646C14.7139 0.276425 14.5911 0.48296 14.6422 0.68574C14.6933 0.888519 14.899 1.0107 15.1036 0.967494C16.3287 0.708826 17.5933 0.688464 18.8282 0.908849C20.1874 1.15143 21.4796 1.68016 22.619 2.45998C23.7584 3.2398 24.7191 4.2529 25.4373 5.43214C26.1555 6.61137 26.6149 7.92979 26.785 9.30001C26.955 10.6702 26.8319 12.061 26.4238 13.38C26.0156 14.699 25.3317 15.9162 24.4175 16.9509C23.5033 17.9856 22.3796 18.8142 21.1209 19.3817C19.9773 19.8973 18.7461 20.1867 17.495 20.2353C17.2861 20.2435 17.1165 20.4122 17.1165 20.6213Z"/>
</mask>
<path d="M17.1165 20.6213C17.1165 20.8305 17.286 21.0007 17.495 20.9932C18.8535 20.9442 20.1907 20.6318 21.4321 20.0721C22.7887 19.4605 23.9998 18.5675 24.985 17.4524C25.9703 16.3372 26.7073 15.0254 27.1472 13.6038C27.5871 12.1823 27.7198 10.6835 27.5365 9.20674C27.3532 7.73001 26.8582 6.3091 26.0841 5.03821C25.3101 3.76731 24.2747 2.67546 23.0467 1.83502C21.8187 0.994584 20.4261 0.42476 18.9612 0.163322C17.6207 -0.0759194 16.2476 -0.0519153 14.9184 0.232646C14.7139 0.276425 14.5911 0.48296 14.6422 0.68574C14.6933 0.888519 14.899 1.0107 15.1036 0.967494C16.3287 0.708826 17.5933 0.688464 18.8282 0.908849C20.1874 1.15143 21.4796 1.68016 22.619 2.45998C23.7584 3.2398 24.7191 4.2529 25.4373 5.43214C26.1555 6.61137 26.6149 7.92979 26.785 9.30001C26.955 10.6702 26.8319 12.061 26.4238 13.38C26.0156 14.699 25.3317 15.9162 24.4175 16.9509C23.5033 17.9856 22.3796 18.8142 21.1209 19.3817C19.9773 19.8973 18.7461 20.1867 17.495 20.2353C17.2861 20.2435 17.1165 20.4122 17.1165 20.6213Z" stroke="white" stroke-width="3" mask="url(#path-1-inside-1_502_2843)"/>
<path d="M20.092 10.5987C20.3849 10.3058 20.3849 9.83092 20.092 9.53803L15.319 4.76506C15.0261 4.47217 14.5512 4.47217 14.2583 4.76506C13.9654 5.05795 13.9654 5.53283 14.2583 5.82572L18.501 10.0684L14.2583 14.311C13.9654 14.6039 13.9654 15.0788 14.2583 15.3717C14.5512 15.6646 15.0261 15.6646 15.319 15.3717L20.092 10.5987ZM-6.55671e-08 10.8184L19.5616 10.8184L19.5616 9.31836L6.55671e-08 9.31836L-6.55671e-08 10.8184Z" fill="white"/>
</svg>
