<svg width="14" height="14" viewBox="0 0 14 14" fill="none" xmlns="http://www.w3.org/2000/svg">
<path fill-rule="evenodd" clip-rule="evenodd" d="M0.281671 12.3616C-0.0931452 12.7365 -0.0930875 13.3441 0.281787 13.7189C0.656661 14.0937 1.26439 14.0937 1.6392 13.7188L7.00012 8.35738L12.3615 13.7183C12.7363 14.0931 13.3441 14.0931 13.7189 13.7183C14.0937 13.3436 14.0937 12.7358 13.7189 12.361L8.35743 6.99998L13.7185 1.63837C14.0932 1.26352 14.0932 0.655835 13.7183 0.281056C13.3435 -0.093733 12.7357 -0.0936757 12.3609 0.28117L6.99993 5.64268L1.63855 0.281631C1.26371 -0.0931764 0.65597 -0.0931764 0.281134 0.281631C-0.0937113 0.656449 -0.0937113 1.26413 0.281134 1.63895L5.64272 7.00008L0.281671 12.3616Z" fill="white"/>
</svg>
