<svg width="17" height="25" viewBox="0 0 17 25" fill="none" xmlns="http://www.w3.org/2000/svg">
<path d="M8.33335 0C3.73843 0 0 3.73843 0 8.33335C0 9.71274 0.344873 11.0804 1.00049 12.2935L7.87764 24.7314C7.96919 24.8973 8.14365 25 8.33335 25C8.52305 25 8.69751 24.8973 8.78906 24.7314L15.6687 12.2894C16.3218 11.0804 16.6667 9.7127 16.6667 8.3333C16.6667 3.73843 12.9283 0 8.33335 0ZM8.33335 12.5C6.03589 12.5 4.1667 10.6308 4.1667 8.33335C4.1667 6.03589 6.03589 4.1667 8.33335 4.1667C10.6308 4.1667 12.5 6.03589 12.5 8.33335C12.5 10.6308 10.6308 12.5 8.33335 12.5Z" fill="white"/>
</svg>
