<svg width="25" height="18" viewBox="0 0 25 18" fill="none" xmlns="http://www.w3.org/2000/svg">
<path d="M16.1987 9.97559L14.1049 12.0765C13.2559 12.9285 11.7619 12.9469 10.8945 12.0765L8.80059 9.97559L1.28027 17.5203C1.56021 17.6498 1.86885 17.727 2.19697 17.727H22.8024C23.1306 17.727 23.4391 17.6499 23.7189 17.5204L16.1987 9.97559Z" fill="white"/>
<path d="M22.8023 0.148438H2.19687C1.86875 0.148438 1.56011 0.225684 1.28027 0.355127L9.31626 8.41777C9.3168 8.41831 9.31743 8.41841 9.31797 8.41895C9.31851 8.41948 9.3186 8.42022 9.3186 8.42022L11.9315 11.0418C12.2091 11.3193 12.7902 11.3193 13.0678 11.0418L15.6802 8.42065C15.6802 8.42065 15.6808 8.41948 15.6813 8.41895C15.6813 8.41895 15.6825 8.41831 15.6831 8.41777L23.7188 0.355078C23.439 0.225586 23.1305 0.148438 22.8023 0.148438Z" fill="white"/>
<path d="M0.233691 1.37988C0.0888672 1.67275 0 1.99785 0 2.34609V15.5297C0 15.8779 0.0887695 16.203 0.233643 16.4959L7.76699 8.93813L0.233691 1.37988Z" fill="white"/>
<path d="M24.7666 1.37891L17.2334 8.93726L24.7666 16.4951C24.9115 16.2022 25.0003 15.8771 25.0003 15.5288V2.34521C25.0003 1.99688 24.9115 1.67178 24.7666 1.37891Z" fill="white"/>
</svg>
