<svg width="14" height="12" viewBox="0 0 14 12" fill="none" xmlns="http://www.w3.org/2000/svg">
<path d="M13.8804 5.68853L9.6806 1.02211C9.59101 0.923184 9.46595 0.867188 9.33342 0.867188H6.53357C6.44343 0.867285 6.35523 0.893405 6.27957 0.942409C6.20392 0.991413 6.14401 1.06122 6.10706 1.14344C6.0324 1.31236 6.0632 1.50929 6.18639 1.64555L10.1052 6.00024L6.18639 10.354C6.0632 10.4912 6.03147 10.6881 6.10706 10.8561C6.18266 11.025 6.34972 11.1333 6.53357 11.1333H9.33342C9.46595 11.1333 9.59101 11.0764 9.6806 10.9793L13.8804 6.31289C14.04 6.13557 14.04 5.86492 13.8804 5.68853Z" fill="white"/>
<path d="M7.81397 5.68853L3.6142 1.02211C3.5246 0.923184 3.39954 0.867188 3.26701 0.867188H0.467166C0.377024 0.867285 0.288826 0.893405 0.213168 0.942409C0.137509 0.991413 0.0776068 1.06122 0.0406559 1.14344C-0.0340067 1.31236 -0.00320837 1.50929 0.119985 1.64555L4.03884 6.00024L0.119985 10.354C-0.00320837 10.4912 -0.03494 10.6881 0.0406559 10.8561C0.116252 11.025 0.283309 11.1333 0.467166 11.1333H3.26701C3.39954 11.1333 3.5246 11.0764 3.6142 10.9793L7.81397 6.31289C7.97356 6.13557 7.97356 5.86492 7.81397 5.68853Z" fill="white"/>
</svg>
