<svg width="112" height="112" viewBox="0 0 112 112" fill="none" xmlns="http://www.w3.org/2000/svg">
<circle cx="56" cy="56" r="56" fill="url(#paint0_linear_2043_2042)"/>
<path d="M46.8295 95.3979L44.7514 102.354L39.7135 100.849L40.0031 99.8794L43.9134 101.048L44.5116 99.045L41.4551 98.1319L41.7385 97.1834L44.795 98.0965L45.4121 96.0307L41.3543 94.8185L41.644 93.8488L46.8295 95.3979Z" fill="white"/>
<path d="M30.3816 87.4004L31.5127 88.2013L31.3613 91.5177L34.4302 90.2673L35.5344 91.0492L31.3491 92.6008L31.1772 96.8597L30.0461 96.0587L30.2163 92.9443L27.3171 94.1262L26.2668 93.3824L30.2285 91.8612L30.3816 87.4004Z" fill="white"/>
<path d="M17.5207 84.1496C17.2145 83.7285 17.0255 83.3128 16.9539 82.9025C16.8778 82.4862 16.9137 82.0929 17.0614 81.7225C17.2092 81.3521 17.4758 81.0268 17.8613 80.7464C18.2409 80.4704 18.6326 80.317 19.0364 80.2863C19.4343 80.2599 19.8195 80.347 20.1921 80.5475C20.5603 80.7422 20.8975 81.05 21.2038 81.4711L22.1548 82.7789L24.3433 81.1873L25.0355 82.1392L19.164 86.4092L17.5207 84.1496ZM20.4953 82.2176C20.1891 81.7965 19.8788 81.5506 19.5645 81.48C19.2399 81.4077 18.9115 81.4924 18.5794 81.7339C18.2414 81.9797 18.0597 82.266 18.0343 82.5928C17.9987 82.9179 18.134 83.291 18.4403 83.7121L19.2813 84.8686L21.3363 83.3741L20.4953 82.2176Z" fill="white"/>
<path d="M17.1406 70.1988L15.8944 66.3937L16.8561 66.0788L18.4686 71.0024L11.5692 73.2619L11.2029 72.1434L17.1406 70.1988Z" fill="white"/>
<path d="M8.43295 56.3865C8.43955 55.6825 8.59558 55.0753 8.90104 54.5648C9.2065 54.0543 9.63919 53.6624 10.1991 53.3889C10.759 53.1155 11.4276 52.9824 12.2049 52.9897C12.9822 52.997 13.6482 53.1426 14.2029 53.4265C14.7576 53.7103 15.1829 54.1103 15.4787 54.6265C15.7745 55.1426 15.9192 55.7526 15.9126 56.4566C15.906 57.1532 15.75 57.7568 15.4446 58.2673C15.1391 58.7778 14.7064 59.1697 14.1465 59.4431C13.5866 59.7166 12.918 59.8496 12.1407 59.8424C11.3634 59.8351 10.6974 59.6895 10.1427 59.4056C9.58801 59.1217 9.16275 58.7217 8.86691 58.2056C8.57107 57.6895 8.42642 57.0831 8.43295 56.3865ZM9.45589 56.3961C9.45163 56.8507 9.55428 57.244 9.76384 57.576C9.97347 57.9006 10.2791 58.1528 10.6808 58.3326C11.0824 58.5124 11.5729 58.605 12.1522 58.6104C12.7242 58.6158 13.2163 58.5324 13.6286 58.3603C14.0336 58.188 14.3439 57.9416 14.5596 57.621C14.7753 57.293 14.8854 56.9016 14.8896 56.447C14.8939 55.985 14.7913 55.5917 14.5817 55.2671C14.3721 54.9351 14.0665 54.6792 13.6648 54.4995C13.2558 54.3196 12.7653 54.227 12.1934 54.2216C11.6141 54.2162 11.1219 54.2996 10.717 54.4718C10.312 54.644 10.0017 54.8941 9.78591 55.2221C9.57023 55.5428 9.46022 55.9341 9.45589 56.3961Z" fill="white"/>
<path d="M11.4382 40.2779C11.7039 39.5474 12.0971 39.0349 12.6177 38.7405C13.1409 38.4391 13.7126 38.4012 14.3328 38.6268C14.9737 38.8599 15.391 39.2575 15.5846 39.8195C15.7738 40.3721 15.7355 41.0136 15.4698 41.7441L15.4943 41.8701L14.919 43.4517L17.6481 44.4442L17.2496 45.54L10.4269 43.0587L11.4382 40.2779ZM14.5817 41.5148C14.7447 41.0668 14.7754 40.7035 14.6739 40.4246C14.568 40.1364 14.3256 39.9234 13.9465 39.7856C13.5744 39.6502 13.2552 39.659 12.9889 39.8118C12.7251 39.9578 12.5118 40.2548 12.3488 40.7027L11.7661 42.305L13.999 43.1171L14.5817 41.5148ZM15.046 40.9462L19.276 39.9681L18.8136 41.2396L15.1343 42.0552L15.046 40.9462Z" fill="white"/>
<path d="M22.7808 33.8568L17.1114 29.3219L20.3958 25.2159L21.1861 25.848L18.6369 29.0349L20.269 30.3404L22.2616 27.8493L23.0347 28.4677L21.0421 30.9588L22.7257 32.3055L25.3711 28.9984L26.1613 29.6305L22.7808 33.8568Z" fill="white"/>
<path d="M45.1125 10.5486L47.2489 17.487L46.2082 17.8075L44.9716 13.7916L44.4665 11.8524L44.456 11.8556L44.1687 18.4355L43.233 18.7236L39.2942 13.445L39.2837 13.4483L39.957 15.3357L41.1936 19.3516L40.1528 19.6721L38.0163 12.7336L39.6878 12.2189L42.3226 15.8043L43.3144 17.3059L43.3355 17.2994L43.3213 15.4967L43.4725 11.0536L45.1125 10.5486Z" fill="white"/>
<path d="M58.4403 9.48996C59.1426 9.53771 59.7397 9.72899 60.2315 10.0638C60.7232 10.3986 61.0892 10.8534 61.3294 11.4284C61.5696 12.0033 61.6634 12.6786 61.6106 13.4541C61.5579 14.2297 61.3736 14.886 61.0578 15.4231C60.742 15.9603 60.3178 16.3614 59.7852 16.6266C59.2527 16.8917 58.6352 17.0004 57.9329 16.9527C57.2378 16.9054 56.6444 16.7144 56.1526 16.3796C55.6609 16.0448 55.2949 15.5899 55.0547 15.015C54.8145 14.44 54.7207 13.7648 54.7735 12.9893C54.8262 12.2137 55.0105 11.5574 55.3263 11.0202C55.6421 10.4831 56.0663 10.0819 56.5989 9.8168C57.1314 9.55165 57.7452 9.4427 58.4403 9.48996ZM58.3709 10.5106C57.9173 10.4798 57.5186 10.5592 57.1749 10.749C56.8386 10.9393 56.569 11.2297 56.366 11.6201C56.163 12.0106 56.0419 12.4948 56.0026 13.0728C55.9638 13.6435 56.0183 14.1397 56.166 14.5613C56.3143 14.9757 56.5421 15.2999 56.8496 15.5339C57.1644 15.7685 57.5486 15.9012 58.0023 15.932C58.4632 15.9634 58.8618 15.8839 59.1982 15.6936C59.5418 15.5038 59.8151 15.2137 60.0181 14.8232C60.2215 14.4255 60.3427 13.9412 60.3815 13.3706C60.4208 12.7926 60.3663 12.2964 60.2181 11.8821C60.0698 11.4677 59.8383 11.1433 59.5235 10.9087C59.216 10.6746 58.8318 10.5419 58.3709 10.5106Z" fill="white"/>
<path d="M74.3453 13.4325C75.059 13.7405 75.5476 14.1629 75.8111 14.6999C76.0814 15.2398 76.0857 15.8127 75.8243 16.4187C75.5541 17.0449 75.1328 17.4382 74.5605 17.5986C73.9978 17.7551 73.3595 17.6794 72.6458 17.3715L72.5187 17.3885L70.9734 16.7218L69.8229 19.3882L68.7523 18.9263L71.6284 12.2603L74.3453 13.4325ZM72.9267 16.4983C73.3644 16.6872 73.7253 16.7391 74.0096 16.6541C74.3035 16.5653 74.5303 16.3357 74.6901 15.9653C74.847 15.6017 74.8569 15.2826 74.7199 15.0078C74.5896 14.7359 74.3056 14.5056 73.868 14.3168L72.3025 13.6413L71.3612 15.8229L72.9267 16.4983ZM73.4671 16.9951L74.1962 21.2751L72.9539 20.7391L72.3549 17.0184L73.4671 16.9951Z" fill="white"/>
<path d="M80.092 25.1304L84.9506 19.7359L88.8575 23.2548L88.1803 24.0067L85.1479 21.2756L83.7492 22.8285L86.1195 24.9634L85.457 25.699L83.0867 23.5641L81.6438 25.1661L84.7906 28.0004L84.1133 28.7523L80.092 25.1304Z" fill="white"/>
<path d="M101.305 45.5272L96.8027 46.8263C95.9924 47.0601 95.2932 47.0177 94.7051 46.6989C94.1261 46.3851 93.7217 45.8301 93.492 45.034C93.3273 44.4633 93.2988 43.9677 93.4065 43.5474C93.5142 43.1271 93.7379 42.7916 94.0777 42.5408C94.4246 42.2881 94.8649 42.1343 95.3986 42.0796L95.9135 43.1102C95.2832 43.2005 94.849 43.3754 94.6109 43.6349C94.3799 43.8924 94.3346 44.2642 94.4749 44.7503C94.6273 45.2788 94.8835 45.5979 95.2434 45.7078C95.6124 45.8227 96.0928 45.7947 96.6847 45.6239L100.976 44.3857L101.305 45.5272Z" fill="white"/>
<path d="M102.4 61.0933L97.9277 60.8922C96.968 60.849 96.2578 60.5639 95.797 60.0366C95.3362 59.5094 95.1276 58.7623 95.1711 57.7953C95.2139 56.8429 95.4886 56.1212 95.9952 55.6301C96.5014 55.1464 97.2344 54.9261 98.1941 54.9692L102.667 55.1703L102.614 56.3461L98.284 56.1515C97.6027 56.1208 97.0907 56.2446 96.7478 56.5228C96.405 56.801 96.2201 57.2405 96.193 57.8412C96.1657 58.4493 96.3103 58.9072 96.6268 59.2151C96.9433 59.5229 97.4421 59.6922 98.1235 59.7228L102.453 59.9175L102.4 61.0933Z" fill="white"/>
<path d="M98.1432 76.5842L97.205 76.2047L98.1372 73.9001L92.3452 71.5573L92.7865 70.4662L98.5786 72.809L99.5108 70.5044L100.449 70.8839L98.1432 76.5842Z" fill="white"/>
<path d="M89.4784 89.1629L88.7111 88.5031L90.332 86.6182L85.5947 82.5445L86.3621 81.6521L91.0994 85.7258L92.7203 83.8409L93.4876 84.5008L89.4784 89.1629Z" fill="white"/>
<path d="M81.0858 95.9874L77.135 89.8966L78.1224 89.2561L82.0732 95.3469L81.0858 95.9874Z" fill="white"/>
<path d="M69.3224 101.581C68.697 101.768 68.1203 101.81 67.5922 101.708C67.0662 101.612 66.5769 101.383 66.1243 101.021L66.6659 100.067C67.0546 100.395 67.4439 100.596 67.8336 100.671C68.2184 100.755 68.6392 100.729 69.0959 100.592C69.4332 100.492 69.6971 100.363 69.8876 100.207C70.0782 100.05 70.203 99.879 70.2622 99.693C70.3165 99.516 70.3153 99.3327 70.2587 99.143C70.1936 98.9252 70.0631 98.7575 69.8673 98.64C69.6645 98.5245 69.3421 98.4831 68.9002 98.5156L67.3935 98.6213C66.6749 98.6752 66.1299 98.5931 65.7586 98.375C65.3873 98.1568 65.1323 97.8158 64.9938 97.3521C64.8657 96.9235 64.8704 96.5164 65.0078 96.131C65.1453 95.7455 65.3961 95.4065 65.7602 95.1141C66.1174 94.8237 66.5735 94.5956 67.1286 94.4297C67.6205 94.2828 68.082 94.2138 68.5133 94.2227C68.9445 94.2317 69.3403 94.301 69.7004 94.4306C70.0606 94.5603 70.3776 94.7373 70.6512 94.9617L70.1043 95.9746C69.8833 95.7728 69.631 95.6071 69.3473 95.4775C69.0658 95.3549 68.7618 95.2851 68.4352 95.2678C68.1015 95.2527 67.752 95.2997 67.3867 95.4088C67.0634 95.5054 66.7974 95.627 66.5887 95.7735C66.3729 95.9222 66.2273 96.0881 66.1519 96.2714C66.0716 96.4637 66.0629 96.6653 66.1259 96.8761C66.1868 97.0799 66.3106 97.2381 66.4973 97.3507C66.677 97.4654 66.9656 97.5092 67.3632 97.4823L68.9953 97.3736C69.4442 97.339 69.8309 97.365 70.1553 97.4518C70.4797 97.5386 70.7443 97.6815 70.9492 97.8805C71.1562 98.0865 71.3048 98.3406 71.395 98.6428C71.5126 99.0363 71.5132 99.4226 71.3969 99.8017C71.2756 100.19 71.0395 100.54 70.6887 100.851C70.3399 101.17 69.8845 101.413 69.3224 101.581Z" fill="white"/>
<path d="M53.5293 98.8239C54.9908 98.8239 56.1756 97.3491 56.1756 95.5298C56.1756 97.3491 57.3603 98.8239 58.8218 98.8239C57.3603 98.8239 56.1756 100.299 56.1756 102.118C56.1756 100.299 54.9908 98.8239 53.5293 98.8239Z" fill="white"/>
<path d="M90.1189 31.3419C90.8707 32.5952 92.7448 32.8526 94.305 31.9168C92.7448 32.8526 92.0895 34.6272 92.8412 35.8806C92.0895 34.6272 90.2153 34.3698 88.6552 35.3056C90.2153 34.3698 90.8707 32.5952 90.1189 31.3419Z" fill="white"/>
<path d="M28.6693 22.3476C29.7611 21.3761 29.6658 19.4867 28.4564 18.1276C29.6658 19.4867 31.5313 19.8009 32.6231 18.8293C31.5313 19.8009 31.6266 21.6902 32.836 23.0493C31.6266 21.6902 29.7611 21.3761 28.6693 22.3476Z" fill="white"/>
<defs>
<linearGradient id="paint0_linear_2043_2042" x1="-64.1667" y1="-1.36463e-06" x2="140.381" y2="10.0634" gradientUnits="userSpaceOnUse">
<stop stop-color="#430D4B"/>
<stop offset="1" stop-color="#C874B2"/>
</linearGradient>
</defs>
</svg>
