<svg width="25" height="25" viewBox="0 0 25 25" fill="none" xmlns="http://www.w3.org/2000/svg">
<path d="M5.40609 6.64583C5.20817 6.64583 4.99984 6.5625 4.854 6.41667C4.55192 6.11458 4.55192 5.61458 4.854 5.3125L8.63525 1.53125C8.93734 1.22917 9.43734 1.22917 9.73942 1.53125C10.0415 1.83333 10.0415 2.33333 9.73942 2.63542L5.95817 6.41667C5.80192 6.5625 5.604 6.64583 5.40609 6.64583Z" fill="#C874B2"/>
<path d="M19.5936 6.64583C19.3957 6.64583 19.1978 6.57292 19.0415 6.41667L15.2603 2.63542C14.9582 2.33333 14.9582 1.83333 15.2603 1.53125C15.5623 1.22917 16.0623 1.22917 16.3644 1.53125L20.1457 5.3125C20.4478 5.61458 20.4478 6.11458 20.1457 6.41667C19.9998 6.5625 19.7915 6.64583 19.5936 6.64583Z" fill="#C874B2"/>
<path d="M21.0522 11.0417C20.9793 11.0417 20.9064 11.0417 20.8335 11.0417H20.5939H4.16683C3.43766 11.0521 2.60433 11.0521 2.00016 10.4479C1.521 9.97917 1.30225 9.25 1.30225 8.17708C1.30225 5.3125 3.396 5.3125 4.396 5.3125H20.6043C21.6043 5.3125 23.6981 5.3125 23.6981 8.17708C23.6981 9.26042 23.4793 9.97917 23.0002 10.4479C22.4585 10.9896 21.7293 11.0417 21.0522 11.0417ZM4.396 9.47917H20.8439C21.3127 9.48958 21.7502 9.48958 21.896 9.34375C21.9689 9.27083 22.1252 9.02083 22.1252 8.17708C22.1252 7 21.8335 6.875 20.5939 6.875H4.396C3.15641 6.875 2.86475 7 2.86475 8.17708C2.86475 9.02083 3.03141 9.27083 3.09391 9.34375C3.23975 9.47917 3.68766 9.47917 4.146 9.47917H4.396Z" fill="#C874B2"/>
<path d="M10.1665 19.0622C9.73942 19.0622 9.38525 18.708 9.38525 18.2809V14.583C9.38525 14.1559 9.73942 13.8018 10.1665 13.8018C10.5936 13.8018 10.9478 14.1559 10.9478 14.583V18.2809C10.9478 18.7184 10.5936 19.0622 10.1665 19.0622Z" fill="#C874B2"/>
<path d="M14.9585 19.0622C14.5314 19.0622 14.1772 18.708 14.1772 18.2809V14.583C14.1772 14.1559 14.5314 13.8018 14.9585 13.8018C15.3856 13.8018 15.7397 14.1559 15.7397 14.583V18.2809C15.7397 18.7184 15.3856 19.0622 14.9585 19.0622Z" fill="#C874B2"/>
<path d="M15.5104 23.698H9.22911C5.49995 23.698 4.66661 21.4793 4.3437 19.5522L2.87495 10.5418C2.80203 10.1147 3.0937 9.71886 3.52078 9.64594C3.94786 9.57303 4.3437 9.86469 4.41661 10.2918L5.88536 19.2918C6.18745 21.1355 6.81245 22.1355 9.22911 22.1355H15.5104C18.1874 22.1355 18.4895 21.198 18.8333 19.3855L20.5833 10.2709C20.6666 9.84386 21.0729 9.56261 21.4999 9.65636C21.927 9.73969 22.1979 10.1459 22.1145 10.573L20.3645 19.6876C19.9583 21.8022 19.2812 23.698 15.5104 23.698Z" fill="#C874B2"/>
</svg>
