<svg width="218" height="32" viewBox="0 0 218 32" fill="none" xmlns="http://www.w3.org/2000/svg">
<path d="M17 0L21.7164 9.8903L33.168 11.0557L24.6313 18.3337L26.9923 28.9443L17 23.552L7.00765 28.9443L9.36872 18.3337L0.832039 11.0557L12.2836 9.8903L17 0Z" fill="#FFC700"/>
<path d="M109 0L113.716 9.8903L125.168 11.0557L116.631 18.3337L118.992 28.9443L109 23.552L99.0077 28.9443L101.369 18.3337L92.832 11.0557L104.284 9.8903L109 0Z" fill="#FFC700"/>
<path d="M63 0L67.7164 9.8903L79.168 11.0557L70.6313 18.3337L72.9923 28.9443L63 23.552L53.0077 28.9443L55.3687 18.3337L46.832 11.0557L58.2836 9.8903L63 0Z" fill="#FFC700"/>
<path d="M155 0L159.716 9.8903L171.168 11.0557L162.631 18.3337L164.992 28.9443L155 23.552L145.008 28.9443L147.369 18.3337L138.832 11.0557L150.284 9.8903L155 0Z" fill="#FFC700"/>
<path d="M201 0L205.716 9.8903L217.168 11.0557L208.631 18.3337L210.992 28.9443L201 23.552L191.008 28.9443L193.369 18.3337L184.832 11.0557L196.284 9.8903L201 0Z" fill="#D9D9D9"/>
</svg>
