<?xml version="1.0" encoding="UTF-8"?>
<svg id="Layer_1" data-name="Layer 1" xmlns="http://www.w3.org/2000/svg" viewBox="0 0 1107.7 662.09">
  <defs>
    <style>
      .cls-1 {
        stroke-width: 0px;
      }

      .cls-2 {
        fill: none;
        stroke: #000;
        stroke-linecap: round;
        stroke-linejoin: round;
        stroke-width: 46.15px;
      }
    </style>
  </defs>
  <path class="cls-2" d="m360.83,543.65c-1,49.48-40.74,88.86-88.98,88.18-48.25-.68-86.92-41.16-86.59-90.65.33-49.48,39.53-89.43,87.78-89.44,23.53.25,46,10.07,62.46,27.3,16.47,17.24,25.58,40.48,25.34,64.61h0Z"/>
  <path class="cls-2" d="m977.01,543.65c-1,49.48-40.74,88.86-88.98,88.18-48.25-.68-86.92-41.16-86.59-90.65.33-49.48,39.52-89.43,87.77-89.44,23.53.25,46,10.07,62.46,27.3,16.47,17.24,25.58,40.48,25.34,64.61h0Z"/>
  <path class="cls-1" d="m736.07,575.36c17.51,0,31.71-14.2,31.71-31.71s-14.2-31.71-31.71-31.71v63.42Z"/>
  <path class="cls-1" d="m704.52,543.65c0,17.51,14.19,31.71,31.71,31.71s31.71-14.2,31.71-31.71h-63.42Z"/>
  <path class="cls-1" d="m767.94,320.98c0-17.51-14.2-31.71-31.71-31.71s-31.71,14.2-31.71,31.71h63.42Z"/>
  <path class="cls-1" d="m736.23,511.95c-17.52,0-31.71,14.2-31.71,31.71s14.19,31.71,31.71,31.71v-63.42Z"/>
  <path class="cls-1" d="m1069.96,444.68l31.7-.56c-.03-1.64-.19-3.26-.47-4.87l-31.24,5.43Z"/>
  <path class="cls-1" d="m1079.68,315.55c-3-17.25-19.42-28.81-36.67-25.81s-28.8,19.42-25.81,36.67l62.48-10.87Z"/>
  <path class="cls-1" d="m736.06,91.33c-17.51,0-31.71,14.2-31.71,31.71s14.2,31.71,31.71,31.71v-63.42Z"/>
  <polygon class="cls-1" points="938.26 123.04 938.26 154.75 938.46 154.75 938.26 123.04"/>
  <polygon class="cls-1" points="1005.43 152.08 982.32 173.79 982.32 173.79 1005.43 152.08"/>
  <path class="cls-1" d="m1031.21,222.01l-31.68-1.35c-.1,2.27.05,4.55.44,6.79l31.24-5.44Z"/>
  <path class="cls-1" d="m1017.2,326.42c3,17.25,19.42,28.8,36.67,25.8,17.25-3.01,28.8-19.43,25.8-36.68l-62.47,10.87Z"/>
  <path class="cls-1" d="m767.77,123.04c0-17.51-14.19-31.71-31.71-31.71s-31.71,14.2-31.71,31.71h63.42Z"/>
  <path class="cls-1" d="m704.35,320.98c0,17.51,14.2,31.71,31.71,31.71s31.71-14.2,31.71-31.71h-63.42Z"/>
  <path class="cls-1" d="m704.35,123.04c0,17.51,14.2,31.71,31.71,31.71s31.71-14.2,31.71-31.71h-63.42Z"/>
  <polygon class="cls-1" points="736.06 89.22 704.35 89.02 704.35 89.22 736.06 89.22"/>
  <polygon class="cls-1" points="692.2 43.69 692.39 11.98 692.2 11.98 692.2 43.69"/>
  <polygon class="cls-1" points="86.36 43.69 86.36 11.98 86.21 11.98 86.36 43.69"/>
  <polygon class="cls-1" points="55.23 57.09 32.42 35.06 32.42 35.06 55.23 57.09"/>
  <polygon class="cls-1" points="42.46 89.14 74.17 89.14 74.16 88.99 42.46 89.14"/>
  <polygon class="cls-1" points="42.46 498.16 74.17 498.31 74.17 498.16 42.46 498.16"/>
  <polygon class="cls-1" points="55.23 530.21 32.42 552.24 32.42 552.24 55.23 530.21"/>
  <polygon class="cls-1" points="86.36 543.61 86.21 575.32 86.36 575.32 86.36 543.61"/>
  <path class="cls-1" d="m736.15,289.23c-17.51,0-31.71,14.2-31.71,31.71s14.2,31.71,31.71,31.71v-63.42Z"/>
  <path class="cls-1" d="m1048.52,352.65c17.51,0,31.71-14.2,31.71-31.71s-14.2-31.71-31.71-31.71v63.42Z"/>
  <path class="cls-1" d="m397.61,136.53c-17.51,0-31.71,14.2-31.71,31.71s14.2,31.71,31.71,31.71v-63.42Z"/>
  <path class="cls-1" d="m596.63,199.95c17.51,0,31.71-14.2,31.71-31.71s-14.2-31.71-31.71-31.71v63.42Z"/>
  <path class="cls-1" d="m438.83,263.36c-17.51,0-31.71,14.2-31.71,31.71s14.2,31.71,31.71,31.71v-63.42Z"/>
  <path class="cls-1" d="m591.27,326.78c17.51,0,31.71-14.2,31.71-31.71s-14.2-31.71-31.71-31.71v63.42Z"/>
  <path class="cls-1" d="m463.98,390.19c-17.51,0-31.71,14.2-31.71,31.71s14.2,31.71,31.71,31.71v-63.42Z"/>
  <path class="cls-1" d="m591.27,453.61c17.51,0,31.71-14.2,31.71-31.71s-14.2-31.71-31.71-31.71v63.42Z"/>
  <rect class="cls-1" x="353" y="511.95" width="383.07" height="63.42"/>
  <rect class="cls-1" x="704.52" y="320.98" width="63.42" height="222.67"/>
  <rect class="cls-1" x="736.23" y="511.95" width="46.27" height="63.42"/>
  <path class="cls-1" d="m977.86,575.35c70.44-1.53,125.04-60.95,123.8-131.23l-63.41,1.12c.65,36.87-27.74,65.97-61.77,66.71l1.37,63.4Z"/>
  <rect class="cls-1" x="1027.49" y="320.05" width="63.42" height="125.56" transform="translate(-49.93 187.16) rotate(-9.87)"/>
  <rect class="cls-1" x="759.37" y="91.33" width="178.9" height="63.42"/>
  <path class="cls-1" d="m938.46,154.75c16.37-.11,32.24,6.67,43.85,19.04l46.23-43.41c-23.52-25.04-56.21-39.26-90.49-39.04l.41,63.41Z"/>
  <path class="cls-1" d="m982.32,173.79c11.65,12.4,17.96,29.34,17.22,46.87l63.36,2.7c1.47-34.36-10.86-67.98-34.35-92.99l-46.23,43.41Z"/>
  <rect class="cls-1" x="1008.12" y="221.27" width="63.41" height="100.46" transform="translate(-31.16 182.39) rotate(-9.88)"/>
  <rect class="cls-1" x="704.35" y="123.04" width="63.42" height="197.94"/>
  <rect class="cls-1" x="704.35" y="89.22" width="63.42" height="33.82"/>
  <path class="cls-1" d="m767.77,89.42c.13-20.16-7.55-39.71-21.6-54.29l-45.67,43.99c2.41,2.5,3.88,6.04,3.86,9.89l63.41.41Z"/>
  <path class="cls-1" d="m746.17,35.14c-14.07-14.61-33.4-23.04-53.78-23.15l-.36,63.41c3.03.02,6.09,1.26,8.47,3.73l45.67-43.99Z"/>
  <rect class="cls-1" x="86.36" y="11.98" width="605.85" height="63.42"/>
  <path class="cls-1" d="m86.21,11.98c-20.37.1-39.7,8.5-53.78,23.08l45.61,44.06c2.38-2.47,5.45-3.71,8.47-3.72l-.3-63.41Z"/>
  <path class="cls-1" d="m32.42,35.06c-14.06,14.55-21.77,34.07-21.67,54.22l63.41-.29c-.02-3.84,1.46-7.38,3.87-9.88l-45.61-44.06Z"/>
  <rect class="cls-1" x="10.75" y="89.14" width="63.42" height="409.03"/>
  <path class="cls-1" d="m10.75,498.02c-.09,20.15,7.62,39.67,21.67,54.22l45.61-44.06c-2.41-2.49-3.89-6.03-3.87-9.88l-63.41-.29Z"/>
  <path class="cls-1" d="m32.42,552.24c14.08,14.58,33.41,22.98,53.78,23.08l.3-63.42c-3.03-.01-6.09-1.26-8.47-3.72l-45.61,44.06Z"/>
  <rect class="cls-1" x="86.36" y="511.9" width="94.37" height="63.42"/>
  <rect class="cls-1" x="759.37" y="289.23" width="289.16" height="63.42"/>
  <rect class="cls-1" x="397.61" y="136.53" width="199.02" height="63.42"/>
  <rect class="cls-1" x="438.83" y="263.36" width="152.44" height="63.42"/>
  <rect class="cls-1" x="463.98" y="390.19" width="127.3" height="63.42"/>
</svg>