<svg width="44" height="44" viewBox="0 0 44 44" fill="none" xmlns="http://www.w3.org/2000/svg">
<path d="M8.61595 11.5501C6.78262 13.5668 5.68262 15.7668 5.68262 19.4335C5.68262 25.8501 10.266 31.5335 16.6826 34.4668L18.3326 32.0835C12.2826 28.7835 10.9993 24.5668 10.6326 21.8168C11.5493 22.3668 12.8326 22.5501 14.116 22.3668C17.416 22.0001 19.9826 19.4335 19.9826 15.9501C19.9826 14.3001 19.2493 12.6501 18.1493 11.3668C16.866 10.0835 15.3993 9.53347 13.566 9.53347C11.5493 9.53346 9.71595 10.4501 8.61595 11.5501ZM26.9493 11.5501C25.116 13.5668 24.016 15.7668 24.016 19.4335C24.016 25.8501 28.5993 31.5335 35.016 34.4668L36.666 32.0835C30.616 28.7835 29.3326 24.5668 28.966 21.8168C29.8826 22.3668 31.166 22.5501 32.4493 22.3668C35.7493 22.0001 38.316 19.4335 38.316 15.9501C38.316 14.3001 37.5826 12.6501 36.4826 11.3668C35.3826 10.0835 33.7326 9.53347 31.8993 9.53347C29.8826 9.53347 28.0493 10.4501 26.9493 11.5501Z" fill="#EBC7DF"/>
</svg>
