<svg width="20" height="20" viewBox="0 0 20 20" fill="none" xmlns="http://www.w3.org/2000/svg">
<path d="M19.1853 4.43948L19.1587 3.81308L18.535 3.74904C16.1394 3.50301 14.0799 2.60902 12.774 1.90239C11.3437 1.12844 10.4767 0.402335 10.4688 0.395633L10.0005 0L9.532 0.395062C9.52338 0.402313 8.65638 1.12844 7.22611 1.90237C5.92021 2.609 3.86073 3.50298 1.46509 3.74902L0.841397 3.81306L0.814768 4.43946C0.81 4.5516 0.709812 7.22315 1.73885 10.4582C2.34607 12.3672 3.22298 14.0776 4.34521 15.5422C5.75442 17.3812 7.55185 18.8308 9.6876 19.8508L10 20L10.3125 19.8508C12.4482 18.8308 14.2457 17.3812 15.6549 15.5422C16.7771 14.0776 17.6541 12.3671 18.2613 10.4582C19.2903 7.22319 19.1901 4.55164 19.1853 4.43948ZM10 18.3883C8.2183 17.4829 6.71029 16.2376 5.51368 14.6829C4.49438 13.3586 3.69421 11.8048 3.13535 10.0646C2.45232 7.93761 2.29913 6.04071 2.26813 5.10927C3.22904 4.96659 4.20047 4.72651 5.16465 4.39308C6.10721 4.06711 7.04533 3.65151 7.95293 3.15784C8.87385 2.65694 9.57462 2.17852 10 1.86568C10.4254 2.1785 11.1262 2.65694 12.0471 3.15784C12.9547 3.65153 13.8929 4.06711 14.8354 4.39308C15.7999 4.72662 16.7716 4.9667 17.7328 5.10938C17.7029 6.03168 17.5527 7.90186 16.8794 10.0187C16.3231 11.7674 15.5239 13.3291 14.5038 14.6602C13.3044 16.2255 11.7904 17.4784 10 18.3883Z" fill="#3ABA0C"/>
<path d="M13.952 6.70117L12.9404 7.71281L9.17012 11.4831L7.25932 9.57229L6.99949 9.31246L6.48682 9.82513V9.82515L5.97412 10.3378L9.17012 13.5338L14.9774 7.72656L13.952 6.70117Z" fill="#3ABA0C"/>
</svg>
